<svg id="Layer_1" data-name="Layer 1" xmlns="http://www.w3.org/2000/svg" viewBox="0 0 1080 1080"><defs><style>.cls-1{fill:#323741;}.cls-2{fill:#fff;}.cls-3{fill:#a5afbe;}.cls-4{fill:#e1e6eb;}</style></defs><path class="cls-1" d="M640.6,427.08l1.49-21A1.3,1.3,0,0,1,643,405l26.09-8.1a1.31,1.31,0,0,1,1.69,1.34l-1.95,27.23a1.28,1.28,0,0,1-.91,1.15l-19.85,6.17a1.31,1.31,0,0,1-1.18-.2c-1.73-1.3-3.46-2.62-5.16-4l-.05.06-.58-.45A1.3,1.3,0,0,1,640.6,427.08Zm-34.34-20.19,18.6-13.7a1.3,1.3,0,0,0,.49-1.39l-9.05-33.74a1.3,1.3,0,0,0-2-.71l-28.14,20.71a1.31,1.31,0,0,0-.48,1.39l5.9,22a1.28,1.28,0,0,0,.85.9q6.42,2.07,12.59,4.67A1.29,1.29,0,0,0,606.26,406.89Zm76.11,47.69L693.74,452a1.3,1.3,0,0,0,1-1.08l3.2-21.45a1.3,1.3,0,0,0-1.57-1.46l-21.14,4.82a1.31,1.31,0,0,0-1,1.08l-2.15,14.4a1.3,1.3,0,0,0,.63,1.32q4.34,2.5,8.77,4.84A1.27,1.27,0,0,0,682.37,454.58Zm20.42,9.92c2.36,1,4.75,1.91,7.15,2.83a1.35,1.35,0,0,0,.93,0l3.39-1.28a1.31,1.31,0,0,0,.85-1.2l.18-14.89a1.29,1.29,0,0,0-1.76-1.23L699.6,454a1.29,1.29,0,0,0-.84,1.2l-.09,6.7a1.34,1.34,0,0,0,.79,1.22Zm-170-69.6h.08q5-.31,10.15-.32c3,0,5.91.09,8.84.25a1.32,1.32,0,0,0,1.14-.56L566,375.32a1.28,1.28,0,0,0,0-1.47l-23.71-34.71a1.29,1.29,0,0,0-2.14,0l-23.71,34.71a1.28,1.28,0,0,0,0,1.47l13,19a1.33,1.33,0,0,0,1.06.57Zm-42.37,8,6.27-23.41a1.31,1.31,0,0,0-.48-1.39l-28.14-20.71a1.3,1.3,0,0,0-2,.71L457,391.8a1.3,1.3,0,0,0,.49,1.39l20,14.71a1.26,1.26,0,0,0,1.28.14q5.32-2.34,10.85-4.3A1.29,1.29,0,0,0,490.46,402.86Zm-116,65.22c2.84-1.05,5.67-2.15,8.47-3.3l.82-1.24-.11-8.37a1.29,1.29,0,0,0-.84-1.2l-13.93-5.24a1.29,1.29,0,0,0-1.76,1.23l.18,14.89a1.31,1.31,0,0,0,.85,1.2l5.4,2A1.32,1.32,0,0,0,374.44,468.08Zm29.22-13q3.18-1.65,6.31-3.39a1.32,1.32,0,0,0,.65-1.34l-2.46-16.46a1.31,1.31,0,0,0-1-1.08L386,428a1.3,1.3,0,0,0-1.57,1.46l3.2,21.45a1.3,1.3,0,0,0,1,1.08l14.12,3.22A1.29,1.29,0,0,0,403.66,455.09Zm34.62-21.65c1.07-.78,2.14-1.55,3.19-2.37l.51-1.17-1.69-23.78a1.3,1.3,0,0,0-.91-1.15l-26.09-8.1a1.31,1.31,0,0,0-1.69,1.34l1.95,27.23a1.28,1.28,0,0,0,.91,1.15l22.66,7.05A1.3,1.3,0,0,0,438.28,433.44Z"/><path class="cls-2" d="M555.28,374.59l-14.09,20.57-14.1-20.57L541.19,354ZM380,456.82l.1,9.84-9.2-3.46-.1-9.84Zm23.55-19.64,2,13.47-13.28-3-2-13.46Zm30.78-27.28,1.17,16.71-16-4.95L418.34,405Zm53.74-28.2L482.62,402,465.7,389.55l5.45-20.27Zm223.51,71.66-.1,9.84-9.2,3.46.1-9.84Zm-19.47-19.18-2,13.46-13.28,3,2-13.47ZM664,405l-1.16,16.7-16,4.95,1.17-16.71Zm-52.81-35.68,5.45,20.27L599.77,402l-5.46-20.26Z"/><path class="cls-3" d="M544,374.59l-2.81,4.12-2.82-4.12,2.82-4.11ZM374.54,460.64l0-2,1.83.7,0,2Zm22.24-17.19-.4-2.69,2.65.6.41,2.7ZM425.43,417l-.23-3.34,3.2,1,.24,3.35Zm49.22-30.55,1.09-4.05,3.37,2.48L478,388.89ZM706,461.34l0-2,1.83-.7,0,2Zm-23.06-17.28.41-2.7,2.65-.6-.4,2.69ZM653.74,418l.24-3.35,3.2-1L657,417Zm-49.39-29.06-1.08-4.05,3.37-2.48,1.09,4.05Z"/><path class="cls-1" d="M580.41,334.82a1.29,1.29,0,0,1,1.19.77l21.64,48.76a1.29,1.29,0,0,1-.22,1.4l-13.54,14.93a1.31,1.31,0,0,1-1,.42,1.5,1.5,0,0,1-.37-.05,158.88,158.88,0,0,0-34.69-6.13,1.29,1.29,0,0,1-1.1-.76L544,375.41a1.29,1.29,0,0,1,.23-1.4l35.18-38.76a1.28,1.28,0,0,1,1-.43m-78.44,0a1.28,1.28,0,0,1,1,.43L538.11,374a1.29,1.29,0,0,1,.23,1.4l-8.46,19a1.29,1.29,0,0,1-1.07.76,159.06,159.06,0,0,0-33.76,6.72,1.32,1.32,0,0,1-.39.06,1.29,1.29,0,0,1-1-.42l-14.35-15.82a1.31,1.31,0,0,1-.22-1.4l21.64-48.76a1.3,1.3,0,0,1,1.19-.77m148.52,32.05a1.3,1.3,0,0,1,1.3,1.24L654,413.72a1.3,1.3,0,0,1-.76,1.25l-18,8.09a1.4,1.4,0,0,1-.53.11,1.31,1.31,0,0,1-.73-.23,159.26,159.26,0,0,0-24.67-14,1.28,1.28,0,0,1-.75-1.11l-1-20.9a1.3,1.3,0,0,1,.77-1.25L650,367a1.4,1.4,0,0,1,.53-.11m-218.6,0a1.4,1.4,0,0,1,.53.11l41.69,18.67a1.3,1.3,0,0,1,.77,1.25l-1.1,22.71a1.33,1.33,0,0,1-.73,1.1A159.16,159.16,0,0,0,450.73,424a1.29,1.29,0,0,1-.75.24,1.31,1.31,0,0,1-.52-.11L429.13,415a1.3,1.3,0,0,1-.76-1.25l2.22-45.61a1.3,1.3,0,0,1,1.3-1.24m254.86,42.39a1.3,1.3,0,0,1,1.29,1.46l-3.64,29.36a1.3,1.3,0,0,1-1,1.11l-16.88,4.29a1.12,1.12,0,0,1-.32,0,1.32,1.32,0,0,1-.69-.2q-5.4-3.36-10.62-7a1.31,1.31,0,0,1-.55-1.24l2.41-19.42a1.29,1.29,0,0,1,1-1.1l28.68-7.29a1.17,1.17,0,0,1,.32,0m-291.12,0a1.17,1.17,0,0,1,.32,0l28.68,7.29a1.29,1.29,0,0,1,1,1.1l2.82,22.73h0c-1.07.72-2.16,1.42-3.24,2.12-.83.54-1.65,1.07-2.48,1.59-1,.64-2,1.28-3,1.91a1.32,1.32,0,0,1-.69.2,1.65,1.65,0,0,1-.32,0l-19.7-5a1.32,1.32,0,0,1-1-1.11l-3.64-29.36a1.3,1.3,0,0,1,1.29-1.46m310.51,27.16a1.29,1.29,0,0,1,1.29,1.36l-1,20.59a1.3,1.3,0,0,1-.89,1.17L698,462.07a1.23,1.23,0,0,1-.42.07,1.36,1.36,0,0,1-.53-.11q-5.88-2.61-11.6-5.51a1.31,1.31,0,0,1-.72-1.23l.54-11.06a1.28,1.28,0,0,1,.88-1.17l19.55-6.57a1.23,1.23,0,0,1,.42-.07m-329.9,0a1.23,1.23,0,0,1,.42.07l19.55,6.57a1.28,1.28,0,0,1,.88,1.17l.63,13a1.28,1.28,0,0,1-.73,1.24q-4.9,2.37-9.91,4.52h0l-10.25-3.44a1.3,1.3,0,0,1-.89-1.17l-1-20.59a1.29,1.29,0,0,1,1.29-1.36m344.83,16a1.29,1.29,0,0,1,1.28,1.05l2.8,14.32a1.32,1.32,0,0,1-.58,1.35L721.68,471a1.36,1.36,0,0,1-.71.2,1.51,1.51,0,0,1-.41-.06q-5.77-1.92-11.43-4.09a1.32,1.32,0,0,1-.82-1l-.83-4.26a1.31,1.31,0,0,1,.58-1.35l12.32-7.82a1.28,1.28,0,0,1,.69-.2m-359.76,0a1.28,1.28,0,0,1,.69.2l12.32,7.82a1.28,1.28,0,0,1,.58,1.35l-1.14,5.85-.87,1L363.16,472l-1.11-.13-4.24-2.68a1.32,1.32,0,0,1-.58-1.35l2.8-14.32a1.3,1.3,0,0,1,1.28-1.05m219.1-124.61a8.32,8.32,0,0,0-6.15,2.72L541.19,367l-33.07-36.44a8.31,8.31,0,0,0-13.74,2.21l-20.11,45.3-39-17.46a8.31,8.31,0,0,0-11.68,7.18l-2,40.83-23.93-6.09a8.29,8.29,0,0,0-10.28,9.07l2.73,22.05-11.24-3.78a8.18,8.18,0,0,0-2.65-.43,8.31,8.31,0,0,0-8.28,8.7l.49,10.31-2.7-1.71a8.23,8.23,0,0,0-4.44-1.29,8.32,8.32,0,0,0-8.15,6.71l-2.8,14.32a8.28,8.28,0,0,0,3.7,8.6l4.24,2.68,1.34.85,1.58.19,1.12.13,1.58.19,1.51-.51,9.73-3.33,1.77-.61,1.24-1.41.86-1,1.23-1.41.36-1.85.15-.74,4.08,1.37,2.84.95,2.42-1.27c3.57-1.55,6.83-3,9.92-4.53a8.29,8.29,0,0,0,4.68-7.89l-.34-7.09L416.92,453a8.26,8.26,0,0,0,6.41-1c1-.64,2.08-1.3,3.11-1.95.86-.54,1.71-1.09,2.55-1.64l.31-.2c1-.66,2-1.31,3-2l3.57-2.4-.52-4.27-1.86-14.95,13.08,5.85a8.14,8.14,0,0,0,3.39.73,8.25,8.25,0,0,0,4.8-1.53A151.73,151.73,0,0,1,476.12,417a8.31,8.31,0,0,0,4.65-7.05l.56-11.61,7.19,7.93a8.3,8.3,0,0,0,8.63,2.34,152.12,152.12,0,0,1,32.28-6.43,8.29,8.29,0,0,0,6.85-4.89l4.91-11.06L546,397a8.28,8.28,0,0,0,7,4.91,152.46,152.46,0,0,1,33.17,5.85,8.44,8.44,0,0,0,2.34.34,8.27,8.27,0,0,0,6.13-2.72l6.39-7,.48,9.8a8.25,8.25,0,0,0,4.84,7.14A153.11,153.11,0,0,1,630,428.69a8.3,8.3,0,0,0,8.11.76l10.81-4.84-1.45,11.64a8.3,8.3,0,0,0,3.52,7.86c3.57,2.47,7.24,4.88,10.9,7.16a8.3,8.3,0,0,0,6.44,1l9.73-2.47-.25,5.16a8.31,8.31,0,0,0,4.55,7.82c3.92,2,7.93,3.89,11.91,5.65a8.21,8.21,0,0,0,3.38.72,8.44,8.44,0,0,0,2.64-.43l1.41-.47a8.22,8.22,0,0,0,5,5.32c3.78,1.46,7.73,2.87,11.74,4.2a8.34,8.34,0,0,0,7.07-.87l2.89-1.83a8.27,8.27,0,0,0,3.7-8.61l-2.8-14.31a8.32,8.32,0,0,0-8.15-6.71,8.23,8.23,0,0,0-4.44,1.29l-2.7,1.71.49-10.31a8.3,8.3,0,0,0-10.93-8.27l-11.24,3.78L695,411.58a8.32,8.32,0,0,0-10.29-9.07l-23.93,6.09-2-40.83a8.31,8.31,0,0,0-11.68-7.18l-39,17.46L588,332.75a8.32,8.32,0,0,0-7.59-4.93Z"/><polygon class="cls-4" points="399.15 443.71 398.81 441.46 396.6 440.95 396.93 443.2 399.15 443.71"/><polygon class="cls-4" points="683.23 443.71 683.57 441.46 685.79 440.95 685.46 443.2 683.23 443.71"/><path class="cls-1" d="M654.37,437.11l2.41-19.42a1.29,1.29,0,0,1,1-1.1l28.68-7.29a1.3,1.3,0,0,1,1.61,1.42l-3.64,29.36a1.3,1.3,0,0,1-1,1.11l-16.88,4.29a1.29,1.29,0,0,1-1-.16q-5.4-3.36-10.62-7A1.31,1.31,0,0,1,654.37,437.11Zm31.1,19.41q5.71,2.89,11.6,5.51a1.3,1.3,0,0,0,.95,0l7.53-2.53a1.3,1.3,0,0,0,.89-1.17l1-20.59a1.29,1.29,0,0,0-1.71-1.29l-19.55,6.57a1.28,1.28,0,0,0-.88,1.17l-.54,11.06A1.31,1.31,0,0,0,685.47,456.52Zm-96-55.84L603,385.75a1.29,1.29,0,0,0,.22-1.4L581.6,335.59a1.3,1.3,0,0,0-2.15-.34L544.27,374a1.29,1.29,0,0,0-.23,1.4l8.33,18.75a1.29,1.29,0,0,0,1.1.76,158.88,158.88,0,0,1,34.69,6.13A1.32,1.32,0,0,0,589.48,400.68ZM709.13,467q5.65,2.18,11.43,4.09a1.34,1.34,0,0,0,1.12-.14l2.89-1.83a1.32,1.32,0,0,0,.58-1.35l-2.8-14.32a1.3,1.3,0,0,0-2-.85l-12.32,7.82a1.31,1.31,0,0,0-.58,1.35l.83,4.26A1.32,1.32,0,0,0,709.13,467Zm-73.93-44,18-8.09a1.3,1.3,0,0,0,.76-1.25l-2.22-45.61A1.31,1.31,0,0,0,650,367l-41.69,18.67a1.3,1.3,0,0,0-.77,1.25l1,20.9a1.28,1.28,0,0,0,.75,1.11,159.26,159.26,0,0,1,24.67,14A1.29,1.29,0,0,0,635.2,423.06Zm-272,48.9,9.73-3.32.87-1,1.14-5.85a1.28,1.28,0,0,0-.58-1.35L362,452.63a1.3,1.3,0,0,0-2,.85l-2.8,14.32a1.32,1.32,0,0,0,.58,1.35l4.24,2.68Zm23.92-9h0q5-2.16,9.91-4.52a1.28,1.28,0,0,0,.73-1.24l-.63-13a1.28,1.28,0,0,0-.88-1.17l-19.55-6.57a1.29,1.29,0,0,0-1.71,1.29l1,20.59a1.3,1.3,0,0,0,.89,1.17Zm142.8-68.53,8.46-19a1.29,1.29,0,0,0-.23-1.4l-35.18-38.76a1.3,1.3,0,0,0-2.15.34l-21.64,48.76a1.31,1.31,0,0,0,.22,1.4l14.35,15.82a1.29,1.29,0,0,0,1.34.36,159.06,159.06,0,0,1,33.76-6.72A1.29,1.29,0,0,0,529.88,394.45Zm-56.1,15.16,1.1-22.71a1.3,1.3,0,0,0-.77-1.25L432.42,367a1.31,1.31,0,0,0-1.83,1.13l-2.22,45.61a1.3,1.3,0,0,0,.76,1.25l20.33,9.11a1.29,1.29,0,0,0,1.27-.13,159.16,159.16,0,0,1,22.32-13.24A1.33,1.33,0,0,0,473.78,409.61ZM418.65,446.2a1.33,1.33,0,0,0,1-.16c1-.63,2-1.27,3-1.91.83-.52,1.65-1.05,2.48-1.59,1.08-.7,2.17-1.4,3.24-2.12h0l-2.82-22.73a1.29,1.29,0,0,0-1-1.1L396,409.3a1.3,1.3,0,0,0-1.61,1.42L398,440.08a1.32,1.32,0,0,0,1,1.11Z"/><path class="cls-2" d="M565.52,396.16,557,377l20.66-22.7,12.72,28.55-13.91,15.27C572.84,397.31,569.2,396.68,565.52,396.16Zm114.89,21.59L663,422.16,660.76,440l17.46-4.41Zm-55.93-.88,19.25-8.59-1.34-26.92-24.61,11,1.06,21.33C620.75,414.7,622.63,415.77,624.48,416.87Zm66.62,42.42,10.63-3.55.62-13L690,446.86l-.54,11.64Zm25.69,10.53,4.55-2.87-1.87-9.48-8.17,5.17,1.11,5.61C713.86,468.79,715.32,469.31,716.79,469.82Zm-347.12,0,1.41-7.16-8.16-5.17L361,467l6,3.77ZM393,459.87l-.6-13L380,442.73l.62,13ZM421.62,440l-2.19-17.87L402,417.75l2.19,17.87Zm89.78-42.3.4-.08c1.59-.32,3.18-.61,4.79-.88L525.42,377l-20.66-22.7-12.71,28.55,14.53,16C508.18,398.4,509.79,398.05,511.4,397.73Zm-48,18.08,1.17-23.46-24.61-11-1.34,26.92L460,417.83C461.16,417.14,462.29,416.47,463.43,415.81Z"/><path class="cls-1" d="M507.94,374.76l4.12,4.54-2.53,5.7-4.13-4.54ZM454,404.1l.26-5.38-4.91-2.2L449,401.9Zm-40.19,27-.45-3.57-3.49-.88.45,3.57ZM387.81,453l-.12-2.6-2.47-.82.13,2.59Zm-21.12,13.25.38-1.9-1.63-1-.38,1.9Zm207.75-91.5-4.12,4.54,2.53,5.7,4.13-4.54Zm58.9,27.14-.26-5.38-4.91,2.2.26,5.38Zm38.77,28.33.45-3.57-3.49.88-.45,3.57ZM697,452.18l.13-2.59-2.47.82-.12,2.6Zm20.29,13.05-.37-1.9-1.64,1,.38,1.9Z"/><path class="cls-1" d="M701.34,465a176.3,176.3,0,0,1,19,105c-11.16,86.8-86.69,154.48-178,154.5h0c-91.33,0-166.86-67.7-178-154.5a176.3,176.3,0,0,1,19-105l-.12-.3.25-.1a258.39,258.39,0,0,0,44.14-23.53l.81,1.18a161.28,161.28,0,1,0,228.09,0l1.36-2a256.75,256.75,0,0,0,44,23.79Z"/><path class="cls-1" d="M769,482.19a229,229,0,0,1-15,115.15c-33.51,82.3-115.71,140.94-211.61,140.94h-.11c-95.9,0-178.1-58.64-211.61-140.94a229,229,0,0,1-15-115A255.46,255.46,0,0,0,349,476.08a199.8,199.8,0,0,0-1.58,107.58c22.34,84.56,101.21,147.72,194.84,147.72h0c93.63,0,172.49-63.16,194.84-147.72a199.8,199.8,0,0,0-1.58-107.58l.12-.45a259.24,259.24,0,0,0,33.3,6.49Z"/><path class="cls-2" d="M802,484.23h1.62c-.24,144.16-117.18,260.95-261.4,260.95S281,628.39,280.78,484.23h3.53a260,260,0,0,0,31.25-1.88,229,229,0,0,0,15,115c33.51,82.3,115.71,140.94,211.61,140.94h.11c95.9,0,178.1-58.64,211.61-140.94a229,229,0,0,0,15-115.15v-.07A262,262,0,0,0,802,484.23Z"/><path class="cls-2" d="M735.54,476.08a199.8,199.8,0,0,1,1.58,107.58c-22.35,84.56-101.21,147.72-194.84,147.72h0c-93.63,0-172.5-63.16-194.84-147.72A199.8,199.8,0,0,1,349,476.08a256,256,0,0,0,34.08-11.37l.12.3a176.3,176.3,0,0,0-19,105c11.17,86.8,86.7,154.48,178,154.5h0c91.33,0,166.86-67.7,178-154.5a176.3,176.3,0,0,0-19-105l.41-1,1,.44a256.13,256.13,0,0,0,32.87,11.14Z"/><path class="cls-2" d="M656.36,442.26a161.28,161.28,0,1,1-228.09,0l-.81-1.18q6.92-4.6,13.52-9.63c2.21-1.83,4.47-3.62,6.78-5.34a159.78,159.78,0,0,1,193.92,2.54l.05-.06q7.75,6.14,16,11.67Z"/><path class="cls-1" d="M288.36,548.69H131.66a3,3,0,1,1,0-6h156.7a3,3,0,0,1,0,6Z"/><path class="cls-1" d="M311.87,610.16H188.6a3,3,0,0,1,0-6H311.87a3,3,0,0,1,0,6Z"/><path class="cls-1" d="M357.54,671.62H270a3,3,0,0,1,0-6h87.53a3,3,0,1,1,0,6Z"/><path class="cls-1" d="M953,548.69H796.27a3,3,0,0,1,0-6H953a3,3,0,0,1,0,6Z"/><path class="cls-1" d="M896,610.16H772.76a3,3,0,0,1,0-6H896a3,3,0,0,1,0,6Z"/><path class="cls-1" d="M814.62,671.62H727.09a3,3,0,0,1,0-6h87.53a3,3,0,0,1,0,6Z"/><path class="cls-1" d="M542.17,748.18A264.4,264.4,0,0,1,277.78,483.79a3,3,0,1,1,6,0c0,142.48,115.92,258.39,258.39,258.39s258.4-115.91,258.4-258.39a3,3,0,0,1,6,0,264.4,264.4,0,0,1-264.4,264.39Z"/><path class="cls-1" d="M542.38,655.87H495.49a6.5,6.5,0,0,1,0-13h46.89a40.31,40.31,0,0,0,40.26-40.27v-93a40.31,40.31,0,0,0-40.26-40.27H495.49a6.5,6.5,0,0,1,0-13h46.89a53.33,53.33,0,0,1,53.26,53.27v93A53.33,53.33,0,0,1,542.38,655.87Z"/><path class="cls-1" d="M518.87,637.46a6.5,6.5,0,0,1-6.5-6.5V463a6.5,6.5,0,0,1,13,0V631A6.5,6.5,0,0,1,518.87,637.46Z"/><path class="cls-1" d="M990.27,490.73H802a264.34,264.34,0,0,1-159.13-53.09l0,.05-5.11-3.93a153.3,153.3,0,0,0-186-2.44c-2.12,1.58-4.25,3.26-6.52,5.14l-.21.17a264.32,264.32,0,0,1-160.6,54.1H89.73a6.5,6.5,0,0,1,0-13H284.31a251.38,251.38,0,0,0,152.62-51.36c2.4-2,4.68-3.79,6.95-5.48a166.31,166.31,0,0,1,196.67-1.24l.09-.11,5.12,3.95A251.44,251.44,0,0,0,802,477.73H990.27a6.5,6.5,0,0,1,0,13Z"/><path class="cls-1" d="M727,668.62A235.64,235.64,0,0,1,644.17,730a251,251,0,0,1-204,0,235.15,235.15,0,0,1-82.84-61.41,314.71,314.71,0,0,0,41.38,29.87,283.63,283.63,0,0,0,45.36,22.1,275.08,275.08,0,0,0,196.19,0,282,282,0,0,0,45.36-22.1A313.21,313.21,0,0,0,727,668.62Z"/><path class="cls-1" d="M282.83,517H109.2a2,2,0,0,1,0-4H282.83a2,2,0,0,1,0,4Z"/><path class="cls-1" d="M299.17,578.42H157.85a2,2,0,0,1,0-4H299.17a2,2,0,0,1,0,4Z"/><path class="cls-1" d="M331.22,639.89h-106a2,2,0,1,1,0-4h106a2,2,0,0,1,0,4Z"/><path class="cls-1" d="M975.43,517H801.81a2,2,0,0,1,0-4H975.43a2,2,0,0,1,0,4Z"/><path class="cls-1" d="M926.78,578.42H785.47a2,2,0,0,1,0-4H926.78a2,2,0,0,1,0,4Z"/><path class="cls-1" d="M859.44,639.89h-106a2,2,0,0,1,0-4h106a2,2,0,0,1,0,4Z"/></svg>